<?xml version="1.0" encoding="UTF-8"?>
<!DOCTYPE svg PUBLIC "-//W3C//DTD SVG 1.1//EN" "http://www.w3.org/Graphics/SVG/1.1/DTD/svg11.dtd">
<!-- Creator: CorelDRAW X8 -->
<svg xmlns="http://www.w3.org/2000/svg" xml:space="preserve" width="420mm" height="297mm" version="1.1" style="shape-rendering:geometricPrecision; text-rendering:geometricPrecision; image-rendering:optimizeQuality; fill-rule:evenodd; clip-rule:evenodd"
viewBox="0 0 42000 29700"
 xmlns:xlink="http://www.w3.org/1999/xlink">
 <defs>
  <style type="text/css">
   <![CDATA[
    .str0 {stroke:#6AD7F2;stroke-width:7.62}
    .str1 {stroke:black;stroke-width:7.62;stroke-linejoin:bevel}
    .fil4 {fill:none}
    .fil1 {fill:#00CCFF}
    .fil2 {fill:#0D92B3}
    .fil3 {fill:#4398AD}
    .fil0 {fill:#6AD7F2}
    .fil5 {fill:white}
    .fil6 {fill:#0D92B3;fill-rule:nonzero}
   ]]>
  </style>
 </defs>
 <g id="Camada_x0020_1">
  <metadata id="CorelCorpID_0Corel-Layer"/>
  <path class="fil0" d="M4273 16912c-50,-759 319,-1483 961,-1889 -195,-357 -319,-755 -357,-1173 -7,-71 -11,-141 -12,-211 -681,-202 -1416,10 -1885,543 -469,533 -586,1289 -299,1938 286,650 923,1074 1633,1087 -21,-97 -34,-195 -41,-295z"/>
  <path class="fil0 str0" d="M15836 12545c-45,1167 -669,2234 -1664,2845l0 1271c0,149 -26,293 -74,427 421,592 1038,997 1726,1156 288,66 588,89 891,65 1026,-82 1934,-698 2389,-1622 409,-830 396,-1793 -9,-2601 -88,-175 -194,-343 -318,-501 -698,-884 -1842,-1289 -2941,-1040z"/>
  <path class="fil1" d="M13142 17912c-598,117 -1195,-205 -1426,-769 -176,-432 -99,-914 175,-1266 -652,-85 -1266,-352 -1772,-770l0 2315c0,609 -432,1134 -1030,1251 -598,117 -1196,-205 -1426,-769 -230,-565 -29,-1213 480,-1548 510,-334 1185,-262 1611,173l0 -1770c-949,-1048 -1164,-2549 -586,-3806 -1832,1019 -2848,3059 -2558,5135 11,81 24,161 39,241 148,779 472,1497 932,2108 700,929 1714,1611 2897,1887 2041,478 4165,-349 5346,-2080 -688,-159 -1305,-564 -1726,-1156 -147,414 -504,735 -956,824z"/>
  <path class="fil1" d="M19095 14086c405,808 418,1771 9,2601 537,125 1096,-94 1406,-550 310,-456 308,-1056 -5,-1510 -314,-454 -874,-669 -1410,-541z"/>
  <path class="fil2" d="M13808 15585l0 -3379 -3689 693 0 2208c506,418 1120,685 1772,770 84,-108 186,-203 306,-282 457,-300 1047,-273 1472,51 47,-19 93,-40 139,-61z"/>
  <path class="fil2" d="M15836 12545l0 0zm-6668 -1592c-578,1257 -363,2758 586,3806l0 -2904 4418 -829 0 4364c995,-611 1619,-1678 1664,-2845 60,-1576 -943,-2997 -2448,-3468 -1505,-471 -3139,124 -3989,1452 -70,110 -133,222 -190,336 -14,29 -28,59 -41,88z"/>
  <path class="fil3" d="M6610 16088c-290,-2076 726,-4116 2558,-5135 13,-29 27,-59 41,-88 -979,-480 -2141,-394 -3039,225 -840,578 -1327,1539 -1305,2549 1,56 4,111 8,167 1,15 2,29 4,44 38,418 162,816 357,1173 312,569 804,1032 1415,1306 -15,-80 -28,-160 -39,-241z"/>
  <path class="fil2" d="M7581 18437c-460,-611 -784,-1329 -932,-2108 -611,-274 -1103,-737 -1415,-1306 -642,406 -1011,1130 -961,1889 7,100 20,198 41,295 135,634 561,1175 1160,1451 690,318 1498,233 2107,-221z"/>
  <path class="fil0" d="M13808 15768l0 -183c-46,21 -92,42 -139,61 48,37 95,78 139,122z"/>
  <path class="fil0 str0" d="M15836 12545c-45,1167 -669,2234 -1664,2845l0 1271c0,149 -26,293 -74,427 421,592 1038,997 1726,1156 288,66 588,89 891,65 1026,-82 1934,-698 2389,-1622 409,-830 396,-1793 -9,-2601 -88,-175 -194,-343 -318,-501 -698,-884 -1842,-1289 -2941,-1040z"/>
  <path class="fil0" d="M13808 15768l0 -183c-46,21 -92,42 -139,61 48,37 95,78 139,122z"/>
  <polygon class="fil4 str1" points="20299,18286 20299,18286 "/>
  <polygon class="fil4 str1" points="2526,15386 2526,15386 "/>
  <path class="fil4 str1" d="M15836 12545c0,0 0,0 0,0"/>
  <polygon class="fil2 str1" points="22077,15386 22077,15386 "/>
  <path class="fil4 str1" d="M15836 12545c0,0 0,0 0,0"/>
  <polygon class="fil4 str1" points="20299,18286 20299,18286 "/>
  <polygon class="fil4 str1" points="2526,15386 2526,15386 "/>
  <path class="fil4 str1" d="M15836 12545c0,0 0,0 0,0"/>
  <polygon class="fil2 str1" points="22077,15386 22077,15386 "/>
  <path class="fil4 str1" d="M15836 12545c0,0 0,0 0,0"/>
  <path class="fil5" d="M8143 16356c-509,335 -710,983 -480,1548 230,564 828,886 1426,769 598,-117 1030,-642 1030,-1251l0 -2315 0 -2208 3689 -693 0 3379 0 183c-44,-44 -91,-85 -139,-122 -425,-324 -1015,-351 -1472,-51 -120,79 -222,174 -306,282 -274,352 -351,834 -175,1266 231,564 828,886 1426,769 452,-89 809,-410 956,-824 48,-134 74,-278 74,-427l0 -1271 0 -4364 -4418 829 0 2904 0 1770c-426,-435 -1101,-507 -1611,-173z"/>
  <path class="fil6" d="M26805 17268l-747 0 0 -2674c0,-53 -10,-101 -31,-146 -19,-46 -47,-85 -81,-119 -34,-34 -73,-61 -118,-80 -46,-19 -95,-29 -147,-29 -52,0 -100,10 -146,29 -45,19 -84,46 -119,80 -34,34 -60,73 -80,119 -18,45 -28,93 -28,146l0 2674 -750 0 0 -2674c0,-53 -10,-101 -28,-146 -20,-46 -46,-85 -80,-119 -34,-34 -74,-61 -119,-80 -45,-19 -94,-29 -146,-29 -52,0 -101,10 -146,29 -46,19 -85,46 -119,80 -34,34 -61,73 -80,119 -19,45 -29,93 -29,146l0 2674 -749 0 0 -2674c0,-155 29,-301 88,-438 58,-136 138,-256 240,-357 101,-102 221,-182 357,-241 137,-58 283,-87 438,-87 139,0 273,25 402,75 129,49 245,121 347,214 103,-93 219,-165 346,-214 129,-50 262,-75 401,-75 156,0 301,29 438,87 137,59 256,139 358,241 101,101 181,221 239,357 59,137 89,283 89,438l0 2674zm3621 -1497c0,208 -39,402 -117,584 -79,182 -186,341 -321,475 -136,136 -295,242 -477,320 -182,79 -376,118 -583,118 -208,0 -402,-39 -584,-118 -182,-78 -340,-184 -475,-320 -136,-134 -242,-293 -320,-475 -78,-182 -118,-376 -118,-584l0 -2248 747 0 0 2248c0,103 20,200 59,290 39,91 93,170 161,238 67,68 147,121 238,161 91,39 189,58 292,58 102,0 200,-19 291,-58 91,-40 171,-93 238,-161 68,-68 122,-147 161,-238 39,-90 59,-187 59,-290l0 -2248 749 0 0 2248zm432 -1125c0,-155 29,-300 88,-436 60,-136 140,-254 242,-357 101,-102 221,-182 356,-242 136,-58 282,-88 436,-88l1719 0 0 750 -1719 0c-52,0 -101,9 -146,28 -46,19 -85,46 -119,80 -33,34 -60,74 -79,118 -20,46 -29,95 -29,147 0,52 9,101 29,147 19,47 46,87 79,121 34,34 73,60 119,79 45,20 94,29 146,29l750 0c155,0 301,29 437,88 137,58 256,138 358,240 102,101 182,221 241,357 58,137 87,283 87,438 0,155 -29,300 -87,437 -59,135 -139,254 -241,355 -102,103 -221,183 -358,242 -136,60 -282,89 -437,89l-1664 0 0 -750 1664 0c52,0 101,-9 146,-28 45,-20 85,-46 119,-80 34,-33 60,-73 80,-119 19,-45 28,-94 28,-146 0,-52 -9,-101 -28,-146 -20,-46 -46,-85 -80,-119 -34,-34 -74,-61 -119,-79 -45,-20 -94,-30 -146,-30l-750 0c-154,0 -300,-29 -436,-88 -135,-60 -255,-140 -356,-241 -102,-103 -182,-222 -242,-359 -59,-136 -88,-282 -88,-437zm4235 2622l-749 0 0 -3745 749 0 0 3745zm3685 -384c-174,150 -369,265 -585,345 -215,80 -439,120 -671,120 -177,0 -349,-23 -513,-69 -164,-47 -319,-112 -462,-196 -144,-84 -275,-186 -393,-304 -119,-119 -220,-250 -305,-394 -84,-143 -149,-297 -195,-461 -47,-165 -70,-336 -70,-514 0,-177 23,-349 70,-514 46,-166 111,-320 195,-464 85,-143 186,-274 305,-393 118,-118 249,-220 393,-304 143,-84 298,-149 462,-196 164,-46 336,-69 513,-69 232,0 456,40 671,118 216,80 411,195 585,347l-397 652c-109,-118 -239,-209 -389,-272 -150,-64 -306,-96 -470,-96 -166,0 -320,32 -464,94 -146,63 -271,148 -379,255 -108,107 -194,233 -256,379 -63,145 -95,299 -95,463 0,164 32,318 95,461 62,144 148,269 256,377 108,109 233,194 379,257 144,62 298,93 464,93 164,0 320,-32 470,-95 150,-63 280,-154 389,-273l397 653z"/>
 </g>
</svg>
