<?xml version="1.0" encoding="UTF-8" standalone="no"?>
<!-- Created with Inkscape (http://www.inkscape.org/) -->

<svg
   xmlns:dc="http://purl.org/dc/elements/1.1/"
   xmlns:cc="http://creativecommons.org/ns#"
   xmlns:rdf="http://www.w3.org/1999/02/22-rdf-syntax-ns#"
   xmlns:svg="http://www.w3.org/2000/svg"
   xmlns="http://www.w3.org/2000/svg"
   version="1.1"
   width="362.52325mm"
   height="115.40755mm"
   viewBox="0 0 36252.325 11540.755"
   id="svg2"
   xml:space="preserve"
   style="fill-rule:evenodd"><metadata
     id="metadata58"><rdf:RDF><cc:Work
         rdf:about=""><dc:format>image/svg+xml</dc:format><dc:type
           rdf:resource="http://purl.org/dc/dcmitype/StillImage" /><dc:title></dc:title></cc:Work></rdf:RDF></metadata><defs
     id="defs4"><style
       type="text/css"
       id="style6" /></defs><g
     transform="translate(-2525.6732,-8917.1303)"
     id="Camada_x0020_1"><metadata
       id="CorelCorpID_0Corel-Layer" /><path
       d="m 4273,16912 c -50,-759 319,-1483 961,-1889 -195,-357 -319,-755 -357,-1173 -7,-71 -11,-141 -12,-211 -681,-202 -1416,10 -1885,543 -469,533 -586,1289 -299,1938 286,650 923,1074 1633,1087 -21,-97 -34,-195 -41,-295 z"
       id="path10"
       style="fill:#6ad7f2" /><path
       d="m 15836,12545 c -45,1167 -669,2234 -1664,2845 l 0,1271 c 0,149 -26,293 -74,427 421,592 1038,997 1726,1156 288,66 588,89 891,65 1026,-82 1934,-698 2389,-1622 409,-830 396,-1793 -9,-2601 -88,-175 -194,-343 -318,-501 -698,-884 -1842,-1289 -2941,-1040 z"
       id="path12"
       style="fill:#6ad7f2;stroke:#6ad7f2;stroke-width:7.61999989" /><path
       d="m 13142,17912 c -598,117 -1195,-205 -1426,-769 -176,-432 -99,-914 175,-1266 -652,-85 -1266,-352 -1772,-770 l 0,2315 c 0,609 -432,1134 -1030,1251 -598,117 -1196,-205 -1426,-769 -230,-565 -29,-1213 480,-1548 510,-334 1185,-262 1611,173 l 0,-1770 c -949,-1048 -1164,-2549 -586,-3806 -1832,1019 -2848,3059 -2558,5135 11,81 24,161 39,241 148,779 472,1497 932,2108 700,929 1714,1611 2897,1887 2041,478 4165,-349 5346,-2080 -688,-159 -1305,-564 -1726,-1156 -147,414 -504,735 -956,824 z"
       id="path14"
       style="fill:#00ccff" /><path
       d="m 19095,14086 c 405,808 418,1771 9,2601 537,125 1096,-94 1406,-550 310,-456 308,-1056 -5,-1510 -314,-454 -874,-669 -1410,-541 z"
       id="path16"
       style="fill:#00ccff" /><path
       d="m 13808,15585 0,-3379 -3689,693 0,2208 c 506,418 1120,685 1772,770 84,-108 186,-203 306,-282 457,-300 1047,-273 1472,51 47,-19 93,-40 139,-61 z"
       id="path18"
       style="fill:#0d92b3" /><path
       d="m 15836,12545 0,0 z M 9168,10953 c -578,1257 -363,2758 586,3806 l 0,-2904 4418,-829 0,4364 c 995,-611 1619,-1678 1664,-2845 60,-1576 -943,-2997 -2448,-3468 -1505,-471 -3139,124 -3989,1452 -70,110 -133,222 -190,336 -14,29 -28,59 -41,88 z"
       id="path20"
       style="fill:#0d92b3" /><path
       d="m 6610,16088 c -290,-2076 726,-4116 2558,-5135 13,-29 27,-59 41,-88 -979,-480 -2141,-394 -3039,225 -840,578 -1327,1539 -1305,2549 1,56 4,111 8,167 1,15 2,29 4,44 38,418 162,816 357,1173 312,569 804,1032 1415,1306 -15,-80 -28,-160 -39,-241 z"
       id="path22"
       style="fill:#4398ad" /><path
       d="m 7581,18437 c -460,-611 -784,-1329 -932,-2108 -611,-274 -1103,-737 -1415,-1306 -642,406 -1011,1130 -961,1889 7,100 20,198 41,295 135,634 561,1175 1160,1451 690,318 1498,233 2107,-221 z"
       id="path24"
       style="fill:#0d92b3" /><path
       d="m 13808,15768 0,-183 c -46,21 -92,42 -139,61 48,37 95,78 139,122 z"
       id="path26"
       style="fill:#6ad7f2" /><path
       d="m 13808,15768 0,-183 c -46,21 -92,42 -139,61 48,37 95,78 139,122 z"
       id="path30"
       style="fill:#6ad7f2" /><polygon
       points="20299,18286 20299,18286 "
       id="polygon32"
       style="fill:none;stroke:#000000;stroke-width:7.61999989;stroke-linejoin:bevel" /><polygon
       points="2526,15386 2526,15386 "
       id="polygon34"
       style="fill:none;stroke:#000000;stroke-width:7.61999989;stroke-linejoin:bevel" /><path
       d="m 15836,12545 c 0,0 0,0 0,0"
       id="path36"
       style="fill:none;stroke:#000000;stroke-width:7.61999989;stroke-linejoin:bevel" /><polygon
       points="22077,15386 22077,15386 "
       id="polygon38"
       style="fill:#0d92b3;stroke:#000000;stroke-width:7.61999989;stroke-linejoin:bevel" /><path
       d="m 15836,12545 c 0,0 0,0 0,0"
       id="path40"
       style="fill:none;stroke:#000000;stroke-width:7.61999989;stroke-linejoin:bevel" /><polygon
       points="20299,18286 20299,18286 "
       id="polygon42"
       style="fill:none;stroke:#000000;stroke-width:7.61999989;stroke-linejoin:bevel" /><polygon
       points="2526,15386 2526,15386 "
       id="polygon44"
       style="fill:none;stroke:#000000;stroke-width:7.61999989;stroke-linejoin:bevel" /><path
       d="m 15836,12545 c 0,0 0,0 0,0"
       id="path46"
       style="fill:none;stroke:#000000;stroke-width:7.61999989;stroke-linejoin:bevel" /><polygon
       points="22077,15386 22077,15386 "
       id="polygon48"
       style="fill:#0d92b3;stroke:#000000;stroke-width:7.61999989;stroke-linejoin:bevel" /><path
       d="m 15836,12545 c 0,0 0,0 0,0"
       id="path50"
       style="fill:none;stroke:#000000;stroke-width:7.61999989;stroke-linejoin:bevel" /><path
       d="m 26805,17268 -747,0 0,-2674 c 0,-53 -10,-101 -31,-146 -19,-46 -47,-85 -81,-119 -34,-34 -73,-61 -118,-80 -46,-19 -95,-29 -147,-29 -52,0 -100,10 -146,29 -45,19 -84,46 -119,80 -34,34 -60,73 -80,119 -18,45 -28,93 -28,146 l 0,2674 -750,0 0,-2674 c 0,-53 -10,-101 -28,-146 -20,-46 -46,-85 -80,-119 -34,-34 -74,-61 -119,-80 -45,-19 -94,-29 -146,-29 -52,0 -101,10 -146,29 -46,19 -85,46 -119,80 -34,34 -61,73 -80,119 -19,45 -29,93 -29,146 l 0,2674 -749,0 0,-2674 c 0,-155 29,-301 88,-438 58,-136 138,-256 240,-357 101,-102 221,-182 357,-241 137,-58 283,-87 438,-87 139,0 273,25 402,75 129,49 245,121 347,214 103,-93 219,-165 346,-214 129,-50 262,-75 401,-75 156,0 301,29 438,87 137,59 256,139 358,241 101,101 181,221 239,357 59,137 89,283 89,438 l 0,2674 z m 3621,-1497 c 0,208 -39,402 -117,584 -79,182 -186,341 -321,475 -136,136 -295,242 -477,320 -182,79 -376,118 -583,118 -208,0 -402,-39 -584,-118 -182,-78 -340,-184 -475,-320 -136,-134 -242,-293 -320,-475 -78,-182 -118,-376 -118,-584 l 0,-2248 747,0 0,2248 c 0,103 20,200 59,290 39,91 93,170 161,238 67,68 147,121 238,161 91,39 189,58 292,58 102,0 200,-19 291,-58 91,-40 171,-93 238,-161 68,-68 122,-147 161,-238 39,-90 59,-187 59,-290 l 0,-2248 749,0 0,2248 z m 432,-1125 c 0,-155 29,-300 88,-436 60,-136 140,-254 242,-357 101,-102 221,-182 356,-242 136,-58 282,-88 436,-88 l 1719,0 0,750 -1719,0 c -52,0 -101,9 -146,28 -46,19 -85,46 -119,80 -33,34 -60,74 -79,118 -20,46 -29,95 -29,147 0,52 9,101 29,147 19,47 46,87 79,121 34,34 73,60 119,79 45,20 94,29 146,29 l 750,0 c 155,0 301,29 437,88 137,58 256,138 358,240 102,101 182,221 241,357 58,137 87,283 87,438 0,155 -29,300 -87,437 -59,135 -139,254 -241,355 -102,103 -221,183 -358,242 -136,60 -282,89 -437,89 l -1664,0 0,-750 1664,0 c 52,0 101,-9 146,-28 45,-20 85,-46 119,-80 34,-33 60,-73 80,-119 19,-45 28,-94 28,-146 0,-52 -9,-101 -28,-146 -20,-46 -46,-85 -80,-119 -34,-34 -74,-61 -119,-79 -45,-20 -94,-30 -146,-30 l -750,0 c -154,0 -300,-29 -436,-88 -135,-60 -255,-140 -356,-241 -102,-103 -182,-222 -242,-359 -59,-136 -88,-282 -88,-437 z m 4235,2622 -749,0 0,-3745 749,0 0,3745 z m 3685,-384 c -174,150 -369,265 -585,345 -215,80 -439,120 -671,120 -177,0 -349,-23 -513,-69 -164,-47 -319,-112 -462,-196 -144,-84 -275,-186 -393,-304 -119,-119 -220,-250 -305,-394 -84,-143 -149,-297 -195,-461 -47,-165 -70,-336 -70,-514 0,-177 23,-349 70,-514 46,-166 111,-320 195,-464 85,-143 186,-274 305,-393 118,-118 249,-220 393,-304 143,-84 298,-149 462,-196 164,-46 336,-69 513,-69 232,0 456,40 671,118 216,80 411,195 585,347 l -397,652 c -109,-118 -239,-209 -389,-272 -150,-64 -306,-96 -470,-96 -166,0 -320,32 -464,94 -146,63 -271,148 -379,255 -108,107 -194,233 -256,379 -63,145 -95,299 -95,463 0,164 32,318 95,461 62,144 148,269 256,377 108,109 233,194 379,257 144,62 298,93 464,93 164,0 320,-32 470,-95 150,-63 280,-154 389,-273 l 397,653 z"
       id="path54"
       style="fill:#0d92b3;fill-rule:nonzero" /></g></svg>