<?xml version="1.0" encoding="UTF-8"?>
<!DOCTYPE svg PUBLIC "-//W3C//DTD SVG 1.1//EN" "http://www.w3.org/Graphics/SVG/1.1/DTD/svg11.dtd">
<!-- Creator: CorelDRAW X8 -->
<svg xmlns="http://www.w3.org/2000/svg" xml:space="preserve" width="420mm" height="297mm" version="1.1" style="shape-rendering:geometricPrecision; text-rendering:geometricPrecision; image-rendering:optimizeQuality; fill-rule:evenodd; clip-rule:evenodd"
viewBox="0 0 42000 29700"
 xmlns:xlink="http://www.w3.org/1999/xlink">
 <defs>
  <style type="text/css">
   <![CDATA[
    .str0 {stroke:#6AD7F2;stroke-width:7.62}
    .str1 {stroke:black;stroke-width:7.62;stroke-linejoin:bevel}
    .fil4 {fill:none}
    .fil1 {fill:#00CCFF}
    .fil2 {fill:#0D92B3}
    .fil3 {fill:#4398AD}
    .fil0 {fill:#6AD7F2}
    .fil5 {fill:white}
   ]]>
  </style>
 </defs>
 <g id="Camada_x0020_1">
  <metadata id="CorelCorpID_0Corel-Layer"/>
  <path class="fil0" d="M11860 17050c-72,-1086 457,-2124 1377,-2705 -280,-510 -458,-1080 -513,-1680 -9,-101 -14,-201 -17,-301 -974,-289 -2027,14 -2699,777 -671,763 -839,1846 -429,2776 410,930 1323,1537 2339,1556 -29,-138 -49,-279 -58,-423z"/>
  <path class="fil0 str0" d="M28419 10797c-64,1671 -958,3200 -2383,4074l0 1820c0,213 -37,419 -105,611 601,848 1486,1428 2471,1656 412,95 842,128 1275,94 1470,-118 2770,-1000 3422,-2323 586,-1189 567,-2569 -13,-3726 -126,-250 -278,-491 -456,-716 -999,-1267 -2638,-1847 -4211,-1490z"/>
  <path class="fil1" d="M24562 18483c-857,168 -1713,-294 -2043,-1102 -252,-619 -142,-1308 250,-1812 -933,-122 -1812,-504 -2538,-1103l0 3315c0,873 -618,1624 -1474,1792 -857,168 -1712,-294 -2042,-1102 -330,-808 -42,-1737 687,-2216 730,-479 1697,-376 2307,248l0 -2535c-1360,-1501 -1668,-3651 -839,-5451 -2623,1459 -4079,4381 -3664,7353 17,116 35,231 57,346 211,1116 676,2144 1335,3018 1002,1331 2453,2307 4147,2704 2923,684 5965,-501 7657,-2980 -985,-228 -1870,-808 -2471,-1656 -211,594 -722,1054 -1369,1181z"/>
  <path class="fil1" d="M33086 13003c580,1157 599,2537 13,3726 769,178 1569,-135 2013,-788 444,-654 441,-1513 -7,-2163 -449,-650 -1251,-958 -2019,-775z"/>
  <path class="fil2" d="M25514 15151l0 -4839 -5283 992 0 3162c726,599 1605,981 2538,1103 120,-155 267,-292 438,-404 655,-430 1500,-391 2108,72 67,-27 134,-56 199,-86z"/>
  <path class="fil2" d="M28419 10797l0 0zm-9549 -2280c-829,1800 -521,3950 839,5451l0 -4159 6327 -1188 0 6250c1425,-874 2319,-2403 2383,-4074 86,-2257 -1350,-4292 -3506,-4967 -2155,-675 -4495,177 -5712,2080 -100,157 -191,318 -272,481 -20,42 -40,84 -59,126z"/>
  <path class="fil3" d="M15206 15870c-415,-2972 1041,-5894 3664,-7353 19,-42 39,-84 59,-126 -1402,-687 -3066,-564 -4353,322 -1203,828 -1900,2204 -1869,3651 2,79 6,159 12,239 2,21 4,41 5,62 55,600 233,1170 513,1680 445,815 1150,1479 2026,1871 -22,-115 -40,-230 -57,-346z"/>
  <path class="fil2" d="M16598 19234c-659,-874 -1124,-1902 -1335,-3018 -876,-392 -1581,-1056 -2026,-1871 -920,581 -1449,1619 -1377,2705 9,144 29,285 58,423 193,908 803,1683 1661,2078 988,456 2147,334 3019,-317z"/>
  <path class="fil0" d="M25514 15413l0 -262c-65,30 -132,59 -199,86 70,53 137,112 199,176z"/>
  <path class="fil0 str0" d="M28419 10797c-64,1671 -958,3200 -2383,4074l0 1820c0,213 -37,419 -105,611 601,848 1486,1428 2471,1656 412,95 842,128 1275,94 1470,-118 2770,-1000 3422,-2323 586,-1189 567,-2569 -13,-3726 -126,-250 -278,-491 -456,-716 -999,-1267 -2638,-1847 -4211,-1490z"/>
  <path class="fil0" d="M25514 15413l0 -262c-65,30 -132,59 -199,86 70,53 137,112 199,176z"/>
  <polygon class="fil4 str1" points="34811,19018 34811,19018 "/>
  <polygon class="fil4 str1" points="9358,14865 9358,14865 "/>
  <path class="fil4 str1" d="M28419 10797c0,0 0,0 0,0"/>
  <polygon class="fil4 str1" points="37356,14865 37356,14865 "/>
  <path class="fil4 str1" d="M28419 10797c0,0 0,0 0,0"/>
  <polygon class="fil4 str1" points="34811,19018 34811,19018 "/>
  <polygon class="fil4 str1" points="9358,14865 9358,14865 "/>
  <path class="fil4 str1" d="M28419 10797c0,0 0,0 0,0"/>
  <polygon class="fil4 str1" points="37356,14865 37356,14865 "/>
  <path class="fil4 str1" d="M28419 10797c0,0 0,0 0,0"/>
  <path class="fil5" d="M17402 16255c-729,479 -1017,1408 -687,2216 330,808 1185,1270 2042,1102 856,-168 1474,-919 1474,-1792l0 -3315 0 -3162 5283 -992 0 4839 0 262c-62,-64 -129,-123 -199,-176 -608,-463 -1453,-502 -2108,-72 -171,112 -318,249 -438,404 -392,504 -502,1193 -250,1812 330,808 1186,1270 2043,1102 647,-127 1158,-587 1369,-1181 68,-192 105,-398 105,-611l0 -1820 0 -6250 -6327 1188 0 4159 0 2535c-610,-624 -1577,-727 -2307,-248z"/>
 </g>
</svg>
