<?xml version="1.0" encoding="UTF-8"?>
<!DOCTYPE svg PUBLIC "-//W3C//DTD SVG 1.1//EN" "http://www.w3.org/Graphics/SVG/1.1/DTD/svg11.dtd">
<!-- Creator: CorelDRAW X8 -->
<svg xmlns="http://www.w3.org/2000/svg" xml:space="preserve" width="127mm" height="127mm" version="1.1" style="shape-rendering:geometricPrecision; text-rendering:geometricPrecision; image-rendering:optimizeQuality; fill-rule:evenodd; clip-rule:evenodd"
viewBox="0 0 12700 12700"
 xmlns:xlink="http://www.w3.org/1999/xlink">
 <defs>
  <style type="text/css">
   <![CDATA[
    .str0 {stroke:#6AD7F2;stroke-width:7.62}
    .str1 {stroke:black;stroke-width:7.62;stroke-linejoin:bevel}
    .fil4 {fill:none}
    .fil1 {fill:#00CCFF}
    .fil2 {fill:#0D92B3}
    .fil3 {fill:#4398AD}
    .fil0 {fill:#6AD7F2}
    .fil5 {fill:white}
   ]]>
  </style>
 </defs>
 <g id="_0">
  <metadata id="CorelCorpID_0Corel-Layer"/>
  <path class="fil0" d="M3251 7035c-21,-328 138,-642 417,-818 -85,-154 -139,-327 -155,-508 -3,-31 -5,-61 -5,-91 -295,-88 -614,4 -817,235 -203,231 -253,558 -129,839 124,282 400,465 707,471 -9,-42 -15,-85 -18,-128z"/>
  <path class="fil0 str0" d="M8259 5144c-20,505 -290,968 -721,1232l0 550c0,65 -11,127 -32,185 182,257 450,432 747,501 125,29 255,39 386,28 445,-35 838,-302 1035,-702 177,-360 171,-777 -4,-1127 -38,-76 -84,-148 -138,-216 -302,-384 -798,-559 -1273,-451z"/>
  <path class="fil1" d="M7092 7468c-259,51 -518,-89 -617,-333 -77,-187 -44,-395 75,-548 -282,-37 -548,-152 -767,-334l0 1003c0,264 -187,491 -446,542 -259,51 -518,-89 -618,-333 -99,-245 -12,-526 208,-671 221,-144 513,-113 698,75l0 -766c-411,-454 -504,-1104 -254,-1649 -793,442 -1233,1325 -1108,2224 5,35 11,70 17,105 64,337 205,648 404,912 303,403 742,698 1254,818 884,207 1804,-151 2315,-901 -297,-69 -565,-244 -747,-501 -64,180 -218,319 -414,357z"/>
  <path class="fil1" d="M9670 5811c175,350 181,767 4,1127 232,54 474,-41 609,-239 134,-197 133,-457 -3,-654 -135,-196 -378,-289 -610,-234z"/>
  <path class="fil2" d="M7380 6461l0 -1464 -1597 300 0 956c219,182 485,297 767,334 37,-47 81,-88 133,-122 198,-130 453,-118 637,22 20,-9 40,-17 60,-26z"/>
  <path class="fil2" d="M8259 5144l0 0zm-2888 -690c-250,545 -157,1195 254,1649l0 -1258 1913 -359 0 1890c431,-264 701,-727 721,-1232 26,-682 -409,-1298 -1060,-1502 -652,-204 -1360,54 -1728,629 -30,47 -57,96 -82,146 -6,12 -12,25 -18,37z"/>
  <path class="fil3" d="M4263 6678c-125,-899 315,-1782 1108,-2224 6,-12 12,-25 18,-37 -424,-208 -927,-171 -1316,97 -364,250 -575,666 -565,1104 0,24 1,48 3,72 1,6 1,13 2,19 16,181 70,354 155,508 134,246 347,447 612,566 -6,-35 -12,-70 -17,-105z"/>
  <path class="fil2" d="M4684 7695c-199,-264 -340,-575 -404,-912 -265,-119 -478,-320 -612,-566 -279,176 -438,490 -417,818 3,43 9,86 18,128 58,274 243,509 502,628 299,138 649,101 913,-96z"/>
  <path class="fil0" d="M7380 6540l0 -79c-20,9 -40,17 -60,26 21,16 41,33 60,53z"/>
  <path class="fil0 str0" d="M8259 5144c-20,505 -290,968 -721,1232l0 550c0,65 -11,127 -32,185 182,257 450,432 747,501 125,29 255,39 386,28 445,-35 838,-302 1035,-702 177,-360 171,-777 -4,-1127 -38,-76 -84,-148 -138,-216 -302,-384 -798,-559 -1273,-451z"/>
  <path class="fil0" d="M7380 6540l0 -79c-20,9 -40,17 -60,26 21,16 41,33 60,53z"/>
  <polygon class="fil4 str1" points="10192,7630 10192,7630 "/>
  <polygon class="fil4 str1" points="2495,6374 2495,6374 "/>
  <path class="fil4 str1" d="M8259 5144c0,0 0,0 0,0"/>
  <polygon class="fil4 str1" points="10961,6374 10961,6374 "/>
  <path class="fil4 str1" d="M8259 5144c0,0 0,0 0,0"/>
  <polygon class="fil4 str1" points="10192,7630 10192,7630 "/>
  <polygon class="fil4 str1" points="2495,6374 2495,6374 "/>
  <path class="fil4 str1" d="M8259 5144c0,0 0,0 0,0"/>
  <polygon class="fil4 str1" points="10961,6374 10961,6374 "/>
  <path class="fil4 str1" d="M8259 5144c0,0 0,0 0,0"/>
  <path class="fil5" d="M4927 6794c-220,145 -307,426 -208,671 100,244 359,384 618,333 259,-51 446,-278 446,-542l0 -1003 0 -956 1597 -300 0 1464 0 79c-19,-20 -39,-37 -60,-53 -184,-140 -439,-152 -637,-22 -52,34 -96,75 -133,122 -119,153 -152,361 -75,548 99,244 358,384 617,333 196,-38 350,-177 414,-357 21,-58 32,-120 32,-185l0 -550 0 -1890 -1913 359 0 1258 0 766c-185,-188 -477,-219 -698,-75z"/>
 </g>
</svg>
