<?xml version="1.0" encoding="utf-8"?>
<!-- Generator: Adobe Illustrator 15.1.0, SVG Export Plug-In . SVG Version: 6.00 Build 0)  -->
<!DOCTYPE svg PUBLIC "-//W3C//DTD SVG 1.1//EN" "http://www.w3.org/Graphics/SVG/1.1/DTD/svg11.dtd">
<svg version="1.1" id="Ebene_1" xmlns="http://www.w3.org/2000/svg" xmlns:xlink="http://www.w3.org/1999/xlink" x="0px" y="0px"
	 width="50px" height="50px" viewBox="0 0 50 50" enable-background="new 0 0 50 50" xml:space="preserve">
<g enable-background="new    ">
	<path fill="#FFFFFF" d="M44.11,4.894c0.345-0.345,0.636-0.463,0.872-0.354c0.235,0.109,0.354,0.4,0.354,0.872v40.105
		c0,0.473-0.119,0.764-0.354,0.872c-0.236,0.109-0.527-0.009-0.872-0.354L24.766,26.69c-0.146-0.164-0.264-0.336-0.354-0.518v19.344
		c0,0.473-0.119,0.764-0.354,0.872c-0.236,0.109-0.527-0.009-0.872-0.354L3.842,26.69c-0.345-0.345-0.518-0.754-0.518-1.227
		c0-0.472,0.173-0.881,0.518-1.226L23.186,4.894c0.345-0.345,0.635-0.463,0.872-0.354c0.236,0.109,0.354,0.4,0.354,0.872v19.344
		c0.09-0.199,0.208-0.372,0.354-0.518L44.11,4.894z"/>
</g>
</svg>
