<?xml version="1.0" encoding="utf-8"?>
<!-- Generator: Adobe Illustrator 15.1.0, SVG Export Plug-In . SVG Version: 6.00 Build 0)  -->
<!DOCTYPE svg PUBLIC "-//W3C//DTD SVG 1.1//EN" "http://www.w3.org/Graphics/SVG/1.1/DTD/svg11.dtd">
<svg version="1.1" id="Ebene_1" xmlns="http://www.w3.org/2000/svg" xmlns:xlink="http://www.w3.org/1999/xlink" x="0px" y="0px"
	 width="50px" height="50px" viewBox="0 0 50 50" enable-background="new 0 0 50 50" xml:space="preserve">
<g enable-background="new    ">
	<path fill="#FFFFFF" d="M21.439,6.283v38.362c0,0.472-0.173,0.88-0.518,1.226c-0.345,0.345-0.754,0.518-1.226,0.518H5.746
		c-0.473,0-0.881-0.173-1.226-0.518c-0.345-0.346-0.518-0.754-0.518-1.226V6.283c0-0.472,0.172-0.88,0.518-1.226
		C4.864,4.712,5.273,4.54,5.746,4.54h13.95c0.472,0,0.881,0.173,1.226,0.518C21.266,5.403,21.439,5.812,21.439,6.283z M45.851,6.283
		v38.362c0,0.472-0.173,0.88-0.518,1.226c-0.345,0.345-0.754,0.518-1.226,0.518h-13.95c-0.472,0-0.881-0.173-1.226-0.518
		c-0.346-0.346-0.518-0.754-0.518-1.226V6.283c0-0.472,0.172-0.88,0.518-1.226c0.345-0.345,0.754-0.518,1.226-0.518h13.95
		c0.472,0,0.881,0.173,1.226,0.518S45.851,5.812,45.851,6.283z"/>
</g>
</svg>
