<?xml version="1.0" encoding="utf-8"?>
<!-- Generator: Adobe Illustrator 15.1.0, SVG Export Plug-In . SVG Version: 6.00 Build 0)  -->
<!DOCTYPE svg PUBLIC "-//W3C//DTD SVG 1.1//EN" "http://www.w3.org/Graphics/SVG/1.1/DTD/svg11.dtd">
<svg version="1.1" id="Ebene_1" xmlns="http://www.w3.org/2000/svg" xmlns:xlink="http://www.w3.org/1999/xlink" x="0px" y="0px"
	 width="50px" height="50px" viewBox="0 0 50 50" enable-background="new 0 0 50 50" xml:space="preserve">
<g enable-background="new    ">
	<path fill="#FFFFFF" d="M14.423,7.346C17.629,5.476,21.13,4.54,24.926,4.54s7.297,0.936,10.503,2.807
		c3.205,1.871,5.744,4.409,7.615,7.615c1.87,3.206,2.806,6.707,2.806,10.503c0,3.797-0.936,7.298-2.806,10.504
		c-1.871,3.206-4.41,5.744-7.615,7.614c-3.206,1.871-6.707,2.807-10.503,2.807s-7.297-0.936-10.503-2.807
		c-3.206-1.87-5.745-4.408-7.615-7.614c-1.871-3.206-2.806-6.707-2.806-10.504c0-3.796,0.935-7.297,2.806-10.503
		C8.679,11.755,11.217,9.217,14.423,7.346z M35.389,26.963c0.581-0.327,0.872-0.826,0.872-1.499c0-0.671-0.291-1.171-0.872-1.498
		l-14.821-8.719c-0.563-0.345-1.145-0.354-1.744-0.027c-0.582,0.346-0.872,0.854-0.872,1.526v17.437
		c0,0.673,0.291,1.181,0.872,1.526c0.29,0.146,0.581,0.218,0.872,0.218c0.309,0,0.6-0.082,0.872-0.245L35.389,26.963z"/>
</g>
</svg>
