<?xml version="1.0" encoding="utf-8"?>
<!-- Generator: Adobe Illustrator 15.1.0, SVG Export Plug-In . SVG Version: 6.00 Build 0)  -->
<!DOCTYPE svg PUBLIC "-//W3C//DTD SVG 1.1//EN" "http://www.w3.org/Graphics/SVG/1.1/DTD/svg11.dtd">
<svg version="1.1" id="Ebene_1" xmlns="http://www.w3.org/2000/svg" xmlns:xlink="http://www.w3.org/1999/xlink" x="0px" y="0px"
	 width="55.542px" height="50px" viewBox="0 0 55.542 50" enable-background="new 0 0 55.542 50" xml:space="preserve">
<g enable-background="new    ">
	<path fill="#FFFFFF" d="M52.824,11.515c0,0.254-0.082,0.463-0.244,0.626l-8.719,8.718c-0.164,0.164-0.373,0.246-0.627,0.246
		c-0.236,0-0.441-0.087-0.613-0.26c-0.174-0.172-0.26-0.376-0.26-0.612v-5.231h-6.975c-0.871,0-1.662,0.136-2.369,0.409
		c-0.709,0.272-1.336,0.681-1.881,1.226s-1.008,1.104-1.389,1.676c-0.383,0.572-0.791,1.276-1.227,2.111
		c-0.582,1.126-1.29,2.68-2.125,4.659c-0.527,1.198-0.977,2.207-1.349,3.024c-0.373,0.817-0.863,1.771-1.472,2.86
		s-1.189,1.998-1.744,2.725s-1.226,1.48-2.016,2.262s-1.607,1.402-2.452,1.866c-0.844,0.463-1.812,0.845-2.901,1.145
		c-1.09,0.299-2.252,0.449-3.488,0.449H4.872c-0.255,0-0.463-0.082-0.627-0.245C4.082,39.005,4,38.797,4,38.542v-5.231
		c0-0.254,0.082-0.463,0.245-0.626c0.164-0.164,0.372-0.245,0.627-0.245h6.103c0.872,0,1.662-0.137,2.371-0.409
		s1.335-0.681,1.88-1.226s1.008-1.104,1.39-1.676s0.79-1.276,1.226-2.111c0.581-1.126,1.29-2.68,2.125-4.659
		c0.527-1.199,0.976-2.207,1.349-3.024c0.372-0.817,0.862-1.771,1.471-2.861c0.608-1.09,1.189-1.998,1.744-2.725
		c0.554-0.726,1.226-1.48,2.016-2.261c0.791-0.781,1.608-1.403,2.452-1.866c0.846-0.463,1.812-0.845,2.902-1.145
		c1.09-0.299,2.252-0.449,3.486-0.449h6.975V2.796c0-0.254,0.082-0.463,0.246-0.626s0.371-0.245,0.627-0.245
		c0.217,0,0.436,0.091,0.654,0.272l8.691,8.691C52.742,11.051,52.824,11.26,52.824,11.515z M22.146,14.157
		c-1.09,1.671-2.334,4.15-3.732,7.438c-0.4-0.817-0.736-1.476-1.008-1.976c-0.272-0.499-0.64-1.076-1.104-1.73
		c-0.463-0.654-0.926-1.167-1.39-1.54c-0.463-0.372-1.035-0.69-1.716-0.954c-0.681-0.263-1.421-0.395-2.221-0.395H4.872
		c-0.255,0-0.463-0.082-0.627-0.245S4,14.385,4,14.13V8.899c0-0.254,0.082-0.463,0.245-0.626s0.372-0.245,0.627-0.245h6.103
		C15.516,8.027,19.239,10.071,22.146,14.157z M52.824,35.927c0,0.254-0.082,0.463-0.244,0.626l-8.719,8.719
		c-0.164,0.164-0.373,0.245-0.627,0.245c-0.236,0-0.441-0.086-0.613-0.259c-0.174-0.173-0.26-0.377-0.26-0.612v-5.231
		c-0.58,0-1.354,0.005-2.314,0.014c-0.963,0.009-1.699,0.019-2.207,0.027c-0.51,0.009-1.172,0-1.99-0.027
		c-0.816-0.027-1.461-0.072-1.934-0.137c-0.473-0.063-1.053-0.158-1.744-0.286c-0.689-0.127-1.262-0.295-1.717-0.504
		c-0.453-0.208-0.98-0.467-1.58-0.776c-0.599-0.309-1.135-0.672-1.607-1.09c-0.473-0.417-0.972-0.903-1.499-1.457
		c-0.527-0.555-1.035-1.186-1.526-1.894c1.072-1.689,2.307-4.169,3.706-7.438c0.399,0.817,0.736,1.476,1.008,1.976
		c0.273,0.499,0.641,1.076,1.104,1.729c0.463,0.654,0.926,1.168,1.391,1.54c0.463,0.372,1.035,0.69,1.715,0.953
		c0.682,0.264,1.422,0.396,2.221,0.396h6.975v-5.231c0-0.254,0.082-0.463,0.246-0.627c0.164-0.163,0.371-0.245,0.627-0.245
		c0.217,0,0.436,0.091,0.654,0.272L52.58,35.3C52.742,35.463,52.824,35.673,52.824,35.927z"/>
</g>
</svg>
