<?xml version="1.0" encoding="utf-8"?>
<!-- Generator: Adobe Illustrator 15.1.0, SVG Export Plug-In . SVG Version: 6.00 Build 0)  -->
<!DOCTYPE svg PUBLIC "-//W3C//DTD SVG 1.1//EN" "http://www.w3.org/Graphics/SVG/1.1/DTD/svg11.dtd">
<svg version="1.1" id="Ebene_1" xmlns="http://www.w3.org/2000/svg" xmlns:xlink="http://www.w3.org/1999/xlink" x="0px" y="0px"
	 width="50px" height="50px" viewBox="0 0 50 50" enable-background="new 0 0 50 50" xml:space="preserve">
<g enable-background="new    ">
	<path fill="#FFFFFF" d="M45.851,8.027v12.206c0,0.473-0.173,0.881-0.518,1.226c-0.345,0.346-0.754,0.518-1.226,0.518H31.901
		c-0.763,0-1.299-0.363-1.607-1.09c-0.31-0.708-0.182-1.335,0.381-1.88l3.761-3.76c-2.688-2.488-5.858-3.732-9.509-3.732
		c-1.889,0-3.691,0.368-5.408,1.104c-1.716,0.735-3.201,1.73-4.455,2.983c-1.253,1.253-2.248,2.738-2.983,4.454
		c-0.735,1.717-1.104,3.52-1.104,5.408c0,1.89,0.368,3.692,1.104,5.408c0.736,1.717,1.73,3.202,2.983,4.455
		c1.253,1.253,2.738,2.248,4.455,2.983c1.717,0.735,3.519,1.104,5.408,1.104c2.162,0,4.205-0.473,6.13-1.417
		c1.925-0.944,3.551-2.279,4.877-4.005c0.127-0.182,0.336-0.29,0.627-0.327c0.254,0,0.48,0.082,0.681,0.245l3.732,3.76
		c0.164,0.146,0.25,0.332,0.259,0.559c0.01,0.228-0.059,0.432-0.204,0.613c-1.979,2.397-4.377,4.255-7.192,5.571
		c-2.815,1.317-5.785,1.976-8.91,1.976c-2.833,0-5.54-0.554-8.119-1.662c-2.579-1.107-4.804-2.597-6.675-4.468
		c-1.871-1.871-3.361-4.096-4.468-6.676c-1.108-2.578-1.662-5.285-1.662-8.119c0-2.833,0.554-5.539,1.662-8.119
		c1.107-2.579,2.597-4.804,4.468-6.675c1.871-1.871,4.096-3.36,6.675-4.468c2.579-1.107,5.286-1.662,8.119-1.662
		c2.67,0,5.253,0.504,7.751,1.512c2.497,1.008,4.718,2.43,6.661,4.264l3.542-3.515c0.527-0.563,1.162-0.69,1.907-0.382
		C45.497,6.729,45.851,7.264,45.851,8.027z"/>
</g>
</svg>
