<?xml version="1.0" encoding="UTF-8" standalone="no"?>
<svg xmlns:rdf="http://www.w3.org/1999/02/22-rdf-syntax-ns#" xmlns="http://www.w3.org/2000/svg" xmlns:osb="http://www.openswatchbook.org/uri/2009/osb" version="1.1" xmlns:cc="http://creativecommons.org/ns#" viewBox="0 0 16 16" xmlns:dc="http://purl.org/dc/elements/1.1/">
 <g transform="translate(0 -1036.4)">
  <path style="color-rendering:auto;text-decoration-color:#000000;color:#000000;isolation:auto;mix-blend-mode:normal;shape-rendering:auto;solid-color:#000000;block-progression:tb;text-decoration-line:none;text-decoration-style:solid;image-rendering:auto;white-space:normal;text-indent:0;text-transform:none" d="m12.98 1036.4c-0.78394 0.012-1.5699 0.3221-2.1699 0.9219l-2.2949 2.2949c-1.054 1.0533-1.0458 2.6202-0.26953 3.8008l-1.25 1.2168c-1.1783-0.8-2.7296-0.8-3.7768 0.3l-2.2949 2.2968c-1.1989 1.1995-1.2407 3.1444-0.060547 4.3242 1.1806 1.1816 3.1261 1.1408 4.3262-0.059l2.2949-2.295c1.054-1.0532 1.0458-2.6202 0.26953-3.8007l1.252-1.2168c1.1788 0.7592 2.7306 0.7653 3.7773-0.2813l2.293-2.293c1.1989-1.1996 1.2406-3.1442 0.06055-4.3242-0.59024-0.5906-1.3723-0.8757-2.1562-0.8633zm0.01172 1.0566c0.50981-0.01 1.0122 0.1761 1.3926 0.5567 0.76057 0.7605 0.74855 2.0156-0.05859 2.8223l-2.2949 2.2949c-0.64387 0.6438-1.5241 0.6416-2.2598 0.2852l1.6038-1.7a0.53175 0.53175 0 1 0 -0.74219 -0.7617l-1.6289 1.5859c-0.38981-0.7435-0.3959-1.6533 0.26367-2.3125l2.2949-2.2949c0.40365-0.4035 0.91988-0.6081 1.4297-0.6172zm-7.5938 7.5918c0.3034-0.01 0.55563 0.1991 0.83008 0.3321l-1.6016 1.5605a0.53133 0.53133 0 1 0 0.74023 0.7617l1.6289-1.5859c0.38943 0.7434 0.39569 1.6536-0.26367 2.3125l-2.2946 2.2c-0.80728 0.8068-2.0616 0.8218-2.8223 0.061-0.76048-0.7603-0.74847-2.0158 0.058594-2.8223l2.2949-2.2949c0.40364-0.4035 0.91988-0.6082 1.4297-0.6172z" fill-rule="evenodd"/>
  <g transform="matrix(.43750 0 0 .43750 -0.5 582.44)">
   <path d="m1.1429 1037.5 13.714 6.9-13.714 6.9z"/>
  </g>
 </g>
</svg>
