<?xml version="1.0" encoding="UTF-8" standalone="no"?>
<svg xmlns:rdf="http://www.w3.org/1999/02/22-rdf-syntax-ns#" xmlns="http://www.w3.org/2000/svg" version="1.0" xmlns:cc="http://creativecommons.org/ns#" xmlns:dc="http://purl.org/dc/elements/1.1/" viewBox="0 0 16 16">
 <path d="m0 7.8388c0.096195 0.236 0.20156 0.4262 0.39921 0.1523 0.25186-0.1663 1.0894-0.8845 1.0292-0.2119-0.228 1.2493-0.51668 2.4878-0.72536 3.7408-0.24257 0.69 0.39336 1.281 1.0146 0.812 0.6676-0.311 1.2335-0.798 1.8133-1.246-0.0892-0.199-0.1548-0.489-0.3692-0.214-0.2903 0.148-0.9102 0.815-1.0509 0.291 0.1953-1.3505 0.6042-2.6601 0.8457-4.0019 0.2461-0.6225-0.2258-1.3772-0.867-0.8445-0.7783 0.3823-1.4181 0.9814-2.0895 1.5222zm2.7622-4.6282c-0.8099-0.0107-1.1804 1.329-0.3981 1.6597 0.6332 0.2342 1.2864-0.4421 1.1086-1.0842-0.0607-0.3356-0.3704-0.6007-0.7105-0.5755h-5e-7z"/>
 <g transform="matrix(.50847 0 0 .50847 7.7966 -523.12)">
  <path d="m0 1036.4 16 8-16 8z"/>
 </g>
</svg>
