<?xml version="1.0" encoding="UTF-8" standalone="no"?>
<svg
   xmlns:dc="http://purl.org/dc/elements/1.1/"
   xmlns:cc="http://creativecommons.org/ns#"
   xmlns:rdf="http://www.w3.org/1999/02/22-rdf-syntax-ns#"
   xmlns:svg="http://www.w3.org/2000/svg"
   xmlns="http://www.w3.org/2000/svg"
   id="svg2"
   height="16"
   version="1.1"
   width="16"
   viewBox="0 0 16 16">
  <metadata
     id="metadata10">
    <rdf:RDF>
      <cc:Work
         rdf:about="">
        <dc:format>image/svg+xml</dc:format>
        <dc:type
           rdf:resource="http://purl.org/dc/dcmitype/StillImage" />
        <dc:title></dc:title>
      </cc:Work>
    </rdf:RDF>
  </metadata>
  <defs
     id="defs8" />
  <path
     style="fill:#969696"
     id="path4"
     d="M 4.5,1 C 4.22,1 4,1.22 4,1.5 l 0,13 C 4,14.78 4.22,15 4.5,15 l 11,0 C 15.78,15 16,14.78 16,14.5 L 16,4 13,1 4.5,1 Z M 6,3 12,3 12,4 6,4 6,3 Z m 0,3 5,0 0,1 -5,0 0,-1 z m 0,3 8,0 0,1 -8,0 0,-1 z m 0,3 4,0 0,1 -4,0 0,-1 z" />
  <g
     style="stroke:#969696;stroke-opacity:1"
     id="g4"
     transform="matrix(0,-0.71428571,-0.71428571,0,751.50507,13.714286)">
    <path
       style="stroke:#969696;stroke-opacity:1"
       id="path6"
       d="m 6,1037.4 4,0 0,7 5,0 -7,7 -7,-7 5,0 z" />
  </g>
</svg>
