<?xml version="1.0" encoding="UTF-8"?>
<svg width="24px" height="24px" enable-background="new 0 0 24 24" fill="#000000" version="1.1" viewBox="0 0 24 24" xmlns="http://www.w3.org/2000/svg">
 <rect width="24" height="24" fill="none"/>
 <rect x="3" y="10" width="11" height="2"/>
 <rect x="3" y="6" width="11" height="2"/>
 <rect x="3" y="14" width="7" height="2"/>
 <path d="m21.574 17.457c0.01345-0.14798 0.02691-0.29596 0.02691-0.45739 0-0.16143-0.01345-0.30941-0.04036-0.45739l0.9955-0.78025c0.09417-0.06727 0.10762-0.20179 0.05381-0.29596l-0.94169-1.6278c-0.05381-0.10762-0.18834-0.13453-0.2825-0.10762l-1.1569 0.47084c-0.24215-0.18834-0.5112-0.33632-0.79371-0.45739l-0.17488-1.2511c-0.026895-0.12108-0.12107-0.20179-0.24215-0.20179h-1.8834c-0.12107 0-0.21524 0.08071-0.22869 0.20179l-0.17488 1.2511c-0.28251 0.12107-0.55156 0.28251-0.79371 0.45739l-1.1704-0.47084c-0.10762-0.04036-0.22869 0-0.2825 0.10762l-0.94169 1.6278c-0.05381 0.10763-0.04036 0.2287 0.05381 0.29596l0.9955 0.78025c-0.02689 0.14798-0.04036 0.30941-0.04036 0.45739s0.01345 0.30941 0.04036 0.45739l-0.9955 0.78025c-0.09416 0.06727-0.10762 0.20179-0.05381 0.29596l0.94169 1.6278c0.05381 0.10762 0.18834 0.13453 0.2825 0.10762l1.1704-0.47084c0.24215 0.18834 0.5112 0.33632 0.79371 0.45739l0.17488 1.2511c0.01345 0.12107 0.10762 0.20179 0.22869 0.20179h1.8834c0.12107 0 0.21524-0.08071 0.22869-0.20179l0.17488-1.2511c0.28251-0.12107 0.55156-0.2825 0.79371-0.45739l1.1704 0.47084c0.10762 0.04036 0.22869 0 0.2825-0.10762l0.94169-1.6278c0.05381-0.10762 0.04036-0.2287-0.05381-0.29596zm-3.4977 1.2242c-0.92823 0-1.6816-0.75335-1.6816-1.6816 0-0.92823 0.75335-1.6816 1.6816-1.6816 0.92823 0 1.6816 0.75335 1.6816 1.6816 0 0.92823-0.75335 1.6816-1.6816 1.6816z" stroke-width="1.3453"/>
</svg>
