<svg xmlns:rdf="http://www.w3.org/1999/02/22-rdf-syntax-ns#" xmlns="http://www.w3.org/2000/svg" version="1.1" xml:space="preserve" height="24" width="24" enable-background="new 0 0 32 32" y="0px" x="0px" xmlns:cc="http://creativecommons.org/ns#" xmlns:dc="http://purl.org/dc/elements/1.1/" viewBox="0 0 7.68 7.68"><metadata><rdf:RDF><cc:Work rdf:about=""><dc:format>image/svg+xml</dc:format><dc:type rdf:resource="http://purl.org/dc/dcmitype/StillImage"/><dc:title/></cc:Work></rdf:RDF></metadata>
<path d="m5.1828,5.0165c-0.14535-0.045825-0.33098-0.1653-0.53888-0.3735-0.17805-0.1743-0.36195-0.39915-0.55058-0.64448-0.0447,0.060225-0.089625,0.12-0.13478,0.18112-0.12308,0.1668-0.24915,0.33495-0.37732,0.50032,0.4476,0.54375,0.9126,1.0768,1.6016,1.1647v0.6354l1.7772-1.026-1.7772-1.0257v0.58825zm-2.9622-2.0515c0.17783,0.1743,0.36173,0.39915,0.55013,0.64425,0.0459-0.061575,0.091725-0.12255,0.13808-0.18532,0.12255-0.16538,0.2472-0.3321,0.37448-0.49628-0.47768-0.5793-0.97208-1.1542-1.7396-1.1819h-0.82325v0.8232h0.8232c0.15431-0.0061,0.39559,0.11428,0.67691,0.39605zm2.9622-0.3744v0.59624l1.7772-1.0261-1.7772-1.0263v0.62262c-0.44782,0.051481-0.80558,0.31706-1.1175,0.62186-0.51645,0.51375-0.9681,1.2153-1.4138,1.773-0.4391,0.5735-0.8799,0.9164-1.1083,0.887h-0.8232v0.82324h0.8232c0.51395-0.00686,0.91238-0.29779,1.256-0.63341,0.516-0.51368,0.9681-1.2151,1.4134-1.773,0.36315-0.47415,0.72555-0.78555,0.9702-0.86505z"/>
</svg>
